<svg version="1" xmlns="http://www.w3.org/2000/svg" width="682.667" height="682.667" viewBox="0 0 512.000000 512.000000"><path d="M67.9 33.4c-3.6 2.5-5.9 6.4-11.5 19.9-2.5 6.1-7.9 18.5-11.4 26.2-1 2.2-7.7 17.7-15 34.5s-14.1 32.5-15.2 35c-3.3 7.5-4.5 10.1-9.8 22.6C.6 181.8-.1 184.1.4 187.8c.7 4.9 1 5.5 8.6 14.3 10.5 12.1 14.3 16.4 16.4 18.9 10.2 12 20.5 24 22.7 26.5 1.5 1.6 8.9 10.2 16.4 19 7.5 8.8 14.7 17.1 15.8 18.5 1.2 1.4 7.8 9 14.7 17 6.9 8 12.7 14.7 13 15 .4.4 51 59.2 63.6 74 1.2 1.4 5.5 6.3 9.5 11 4.1 4.7 9.9 11.4 12.9 15 3 3.6 6 7 6.5 7.6.6.6 3.3 3.7 6 6.9 2.8 3.2 5.5 6.3 6 6.9.6.6 3.7 4.3 7 8.1 3.3 3.9 6.2 7.2 6.5 7.5.3.3 4.1 4.8 8.5 10s8.9 10.4 10 11.6c5 5.3 13.1 6.9 18.7 3.7 1.6-1 12-12.4 23.1-25.3 11.1-12.9 20.4-23.7 20.7-24 .3-.3 4.3-5 9-10.5s8.7-10.2 9-10.5c.3-.3 3.2-3.7 6.5-7.5 3.3-3.9 6.2-7.2 6.5-7.5.3-.3 5.9-6.8 12.5-14.5s12.2-14.2 12.5-14.5c.3-.3 8.6-9.9 18.5-21.5 15.6-18.1 56.6-65.8 65.9-76.6 48.5-56.1 62.3-72.6 63.3-75.2.7-1.8 1.2-4.6 1.3-6.2 0-1.9-12.1-30.8-31.7-75.9-30.3-69.4-32-73.1-35.7-75.8l-3.9-2.8H71.5l-3.6 2.4z"/></svg>